PathFileType	4	(X/Y/Z)	C:\Users\Alexander Denk\OneDrive - Universitaet Duisburg-Essen\Dokumente\GitHub\artisynth_dissertation_models\src\artisynth\models\gait_model\Models\EP010DR1980_BE_3Gang01\Input\EP010DR1980_BE_3Gang01_positions.trc
DataRate	CameraRate	NumFrames	NumMarkers	Units	OrigDataRate	OrigDataStartFrame	OrigNumFrames
100	100	5	41	m	100	25	103
Frame#	Time	LFHD			RFHD			LBHD			RBHD			C7			T10			CLAV			STRN			RBAK			LSHO			LUPA			LELB			LFRM			LWRA			LWRB			LFIN			RSHO			RUPA			RELB			RFRM			RWRA			RWRB			RFIN			LASI			RASI			LPSI			RPSI			LTHI			LKNE			LTIB			LANK			LTOE			LBTO			LHEE			RKNE			RTIB			RANK			RTOE			RBTO			RHEE			RTHI			
		X1	Y1	Z1	X2	Y2	Z2	X3	Y3	Z3	X4	Y4	Z4	X5	Y5	Z5	X6	Y6	Z6	X7	Y7	Z7	X8	Y8	Z8	X9	Y9	Z9	X10	Y10	Z10	X11	Y11	Z11	X12	Y12	Z12	X13	Y13	Z13	X14	Y14	Z14	X15	Y15	Z15	X16	Y16	Z16	X17	Y17	Z17	X18	Y18	Z18	X19	Y19	Z19	X20	Y20	Z20	X21	Y21	Z21	X22	Y22	Z22	X23	Y23	Z23	X24	Y24	Z24	X25	Y25	Z25	X26	Y26	Z26	X27	Y27	Z27	X28	Y28	Z28	X29	Y29	Z29	X30	Y30	Z30	X31	Y31	Z31	X32	Y32	Z32	X33	Y33	Z33	X34	Y34	Z34	X35	Y35	Z35	X36	Y36	Z36	X37	Y37	Z37	X38	Y38	Z38	X39	Y39	Z39	X40	Y40	Z40	X41	Y41	Z41	X42	Y42	Z42	X43	Y43	Z43	

26	0.25	0.178390838623047	1.74653234863281	0.021338904137705	0.306784118652344	1.75414196777344	0.025943884606455	0.168119430541992	1.67299597167969	0.159223715539072	0.319126403808594	1.6797060546875	0.1582037265254	0.246631973266602	1.57354052734375	0.212692724938486	0.227084274291992	1.29470336914063	0.284311667199228	0.243792388916016	1.4394345703125	0.0680150515986425	0.237052368164062	1.30643029785156	0.0489126040888768	0.392690765380859	1.46998754882813	0.247006827111338	0.0506160774230957	1.52647607421875	0.143591070885752	0.00654416561126709	1.38067150878906	0.138500128502939	-0.0249454574584961	1.18497058105469	0.126486883874033	-0.010349536895752	0.944282836914063	0.0714303042841893	0.0385651092529297	0.912675537109375	0.0613661868525487	-0.0182546253204346	0.905822204589844	0.113308539147471	0.00187013602256775	0.832388427734375	0.02345780062208	0.43892138671875	1.52389953613281	0.14815213655958	0.508782867431641	1.25969885253906	0.157959341759775	0.524287048339844	1.16525927734375	0.151542517418955	0.505233062744141	0.946984130859375	0.0880952517939549	0.451783233642578	0.913036560058594	0.0503619143916112	0.495753234863281	0.892688415527344	0.113425772423838	0.489876739501953	0.818645690917969	0.0176993472529393	0.102383682250977	1.07056079101562	0.091153372521494	0.364353637695312	1.0644912109375	0.0839774692011815	0.206258773803711	1.11411169433594	0.262230971093271	0.274184875488281	1.10891674804688	0.260026121850107	0.0819306716918945	0.687226684570313	0.123159247155283	0.104487449645996	0.526429748535156	0.138000403161142	0.10590015411377	0.365703460693359	0.151371847863291	0.158789993286133	0.0676628036499024	0.189996420617197	0.172481170654297	0.0383953056335449	0.0347656009150487	0.197293563842773	0.0339609031677246	-0.0214396603154201	0.193951187133789	0.0336074409484863	0.255990996117685	0.386237243652344	0.52995556640625	0.0414782473994237	0.391010192871094	0.413241058349609	0.140611578698252	0.335792266845703	0.196189529418945	0.325773770089243	0.355072052001953	0.0830927276611328	0.218022482628916	0.345779998779297	0.0515960273742676	0.167111197228525	0.280262145996094	0.196066314697266	0.387166796441172	0.399397491455078	0.680131530761719	0.0397470767451268
27	0.26	0.179477096557617	1.74672839355469	0.0215701153325101	0.307859802246094	1.75421228027344	0.0264670879887601	0.168745559692383	1.67327099609375	0.159469468359854	0.319789001464844	1.67979772949219	0.158794007544424	0.246765335083008	1.57380590820313	0.21312724423876	0.226507614135742	1.29514807128906	0.285077874426748	0.244497024536133	1.43949523925781	0.0687230389164944	0.237534881591797	1.30651574707031	0.0497375652836819	0.392458953857422	1.47013159179688	0.248262353186514	0.0510374183654785	1.52704125976563	0.143109742407705	0.00675703144073486	1.38134582519531	0.137551362280752	-0.0248718585968018	1.18572937011719	0.124851472144033	-0.0094182767868042	0.945515686035156	0.0682324993657131	0.0396230888366699	0.914116394042969	0.0583141338871975	-0.0175734119415283	0.906741760253906	0.109751679663565	0.00337970685958862	0.834097534179688	0.0195071575688381	0.439255432128906	1.52384008789063	0.14958134580126	0.509007354736328	1.25964685058594	0.160142518286612	0.524485595703125	1.165166015625	0.153852006201651	0.505431121826172	0.946910278320312	0.0903465130375882	0.452146514892578	0.913051696777344	0.0523404095219632	0.495780090332031	0.892648681640625	0.115611054663565	0.490332855224609	0.818669372558594	0.0197863934086819	0.102097953796387	1.0702177734375	0.0922909710454006	0.364025268554688	1.0656669921875	0.0850898602055569	0.205969573974609	1.11442736816406	0.263099435095694	0.27396240234375	1.10941369628906	0.261154923682119	0.0826829376220703	0.686798767089844	0.129067597632315	0.105417694091797	0.526122131347656	0.146872987036612	0.106780654907227	0.365542785644531	0.16210250974169	0.159367599487305	0.0677605361938477	0.20339172482958	0.172686447143555	0.0381873321533203	0.0482470257329006	0.197053970336914	0.0339118232727051	-0.00804179262647442	0.194317687988281	0.0339801902770996	0.269529435400869	0.386315948486328	0.532796997070312	0.0339387371586819	0.391320983886719	0.412119232177734	0.128858475928213	0.336858520507813	0.18553369140625	0.303184678320791	0.358553070068359	0.0793975219726563	0.189295502905752	0.350203277587891	0.0506146621704102	0.136806977515127	0.281069030761719	0.181298309326172	0.364293979887869	0.399600616455078	0.683399291992188	0.0345240948246975
28	0.27	0.180605407714844	1.74670227050781	0.0218046529433308	0.308974273681641	1.75404638671875	0.0269869954726277	0.169410980224609	1.67331579589844	0.159714366688448	0.320488433837891	1.67964526367188	0.159380580677706	0.246950897216797	1.57383154296875	0.213549159779268	0.225998550415039	1.29535473632813	0.285830219044405	0.245210464477539	1.43931066894531	0.0694289815566121	0.238017150878906	1.30636877441406	0.0505451314589558	0.392281616210937	1.47004028320312	0.249469280018526	0.051496337890625	1.5273837890625	0.142656184925753	0.00699229621887207	1.38180688476563	0.136619655384737	-0.0247930297851563	1.18628112792969	0.1232169454238	-0.00845910167694092	0.946577880859375	0.0649646566054402	0.0407096862792969	0.915397521972656	0.0551773946425495	-0.0168534107208252	0.907481689453125	0.106108272328096	0.00494279623031616	0.8356689453125	0.0154607503554401	0.439618194580078	1.52354992675781	0.150937694325167	0.509233612060547	1.25935729980469	0.162266917957979	0.52468408203125	1.16483264160156	0.156092952503878	0.505640991210938	0.946587768554688	0.0925592305800495	0.452527862548828	0.912810363769531	0.0542777974745808	0.495819091796875	0.892366088867187	0.117762935414034	0.490817962646484	0.818433349609375	0.021859157337862	0.101871406555176	1.06964575195313	0.0933939778945027	0.363778656005859	1.066564453125	0.0861611898085651	0.205752838134766	1.11450512695312	0.263956462635714	0.273798919677734	1.10966174316406	0.262248851551729	0.0834728393554688	0.686268493652344	0.135030971302706	0.106352691650391	0.525764404296875	0.155693324818331	0.10767594909668	0.365370452880859	0.172774822010714	0.15998567199707	0.0678979110717774	0.216783427967745	0.172903610229492	0.0379876480102539	0.061725612415987	0.196813659667969	0.033858814239502	0.00537069298239318	0.194735275268555	0.0343794326782227	0.283067241444307	0.386421447753906	0.535229858398438	0.0271691854140339	0.391659454345703	0.410095336914063	0.117188426747042	0.337773315429688	0.174292785644531	0.27970253349753	0.362090270996094	0.0755589981079102	0.160074641957003	0.354788146972656	0.0497169494628906	0.106104671253878	0.281590484619141	0.165941543579102	0.340108363880831	0.399741790771484	0.686371643066406	0.0298838460585651
29	0.28	0.181765655517578	1.74645129394531	0.0220437987084484	0.310117431640625	1.7536435546875	0.0275010435814952	0.170112289428711	1.67312390136719	0.159957800173292	0.321220642089844	1.6792451171875	0.159958227419386	0.247190673828125	1.57361315917969	0.213954122805128	0.225568466186523	1.29531469726563	0.286557653688917	0.2459296875	1.43888024902344	0.0701205198998546	0.238502380371094	1.30598400878906	0.0513254149193858	0.3921650390625	1.46971081542969	0.250614126467237	0.0519924354553223	1.52749377441406	0.142233175539503	0.00725141906738281	1.38204309082031	0.135708334230909	-0.0247061519622803	1.18661608886719	0.121586340212355	-0.00747348403930664	0.947458984375	0.0616380064721202	0.0418234710693359	0.916506652832031	0.0519690001244639	-0.0160964832305908	0.908033569335937	0.102391302370558	0.00655626249313355	0.837090515136719	0.011331793093214	0.440011383056641	1.52302905273438	0.152208288454542	0.509464752197266	1.25883068847656	0.164315161013136	0.524885070800781	1.164259765625	0.158249227785597	0.505863006591797	0.946015014648438	0.0947256224389171	0.452924224853516	0.912308715820312	0.0561722166771983	0.495873077392578	0.891838989257812	0.119876409792433	0.491322967529297	0.817931030273437	0.0239169371361827	0.101712684631348	1.06884753417969	0.0944452269311046	0.363619903564453	1.06716296386719	0.0871790831322765	0.205616790771484	1.11433654785156	0.264790762209425	0.273700592041016	1.10965051269531	0.263294653200636	0.084288932800293	0.685638732910156	0.141004736208448	0.107276885986328	0.525355163574219	0.164440801882276	0.108569564819336	0.365183715820313	0.183381750368605	0.160626358032227	0.0680829849243164	0.230166601442823	0.173122940063477	0.0378077926635742	0.0752033140893076	0.196582885742187	0.0338019828796387	0.0188041136498545	0.195198822021484	0.0347987899780274	0.296607824587355	0.386550231933594	0.537177917480469	0.0212156431908702	0.392038055419922	0.407190704345703	0.105599737429151	0.338556640625	0.162639038085937	0.255293379091749	0.365662475585938	0.0716981353759766	0.1303618071313	0.359463653564453	0.0489848899841309	0.0750353453393077	0.281855865478516	0.150225158691406	0.314600309633741	0.399815063476562	0.688965087890625	0.0258945067162608
30	0.29	0.182949371337891	1.74597473144531	0.022288590225519	0.311280944824219	1.75300524902344	0.0280067298739565	0.170847274780273	1.67269165039063	0.160199158462824	0.321982788085937	1.67859655761719	0.160521912369074	0.247487380981445	1.57314880371094	0.214338425430597	0.225228271484375	1.29502233886719	0.287250244888605	0.246653472900391	1.43820617675781	0.0707863319247378	0.238994918823242	1.30535876464844	0.0520693824618471	0.392115783691406	1.46914245605469	0.25168522718841	0.052526195526123	1.52736352539063	0.141843415054621	0.00753710031509399	1.38204577636719	0.134820999893488	-0.0246072959899902	1.18672741699219	0.119962815079035	-0.00646331548690796	0.948150573730469	0.0582646949618471	0.0429621849060059	0.917433410644531	0.0487021949618471	-0.0153048095703125	0.908390747070313	0.0986148536532533	0.00821457576751709	0.838351928710938	0.00713395765715957	0.440437774658203	1.52227966308594	0.153382431778253	0.509705444335938	1.25806921386719	0.166270890030206	0.525092590332031	1.1634501953125	0.160305710586847	0.506098083496094	0.945193176269531	0.0968372352450502	0.453332855224609	0.911546325683594	0.0580210731356752	0.495945251464844	0.891068359375	0.12194548109466	0.491838989257812	0.817159423828125	0.0259568946688783	0.101629928588867	1.06782800292969	0.0954288795321596	0.363553680419922	1.0674462890625	0.0881313636630189	0.205568801879883	1.11391613769531	0.26559147718841	0.273673583984375	1.10937329101563	0.264279984268488	0.0851156005859375	0.684912170410156	0.146940491470636	0.108176368713379	0.524892944335937	0.173090851578058	0.109446022033691	0.364980285644531	0.193910568985285	0.161269454956055	0.0683169326782227	0.243535034927667	0.173333206176758	0.0376563301086426	0.0886825416415346	0.196372116088867	0.0337416343688965	0.0322569434970033	0.195693695068359	0.0352366027832031	0.310152230057062	0.386701599121094	0.538578674316406	0.0161239784091127	0.392472320556641	0.403489105224609	0.0941138770907533	0.33925830078125	0.150766540527344	0.229923386368097	0.369209808349609	0.0679481430053711	0.100142807754816	0.364101013183594	0.0485243148803711	0.0436080482333314	0.281947631835938	0.134403350830078	0.287784683975519	0.399832916259766	0.691099670410156	0.0226281593173158
